<?xml version="1.0" standalone="no"?>
<!DOCTYPE svg PUBLIC "-//W3C//DTD SVG 1.1//EN" "http://www.w3.org/Graphics/SVG/1.1/DTD/svg11.dtd" >
<svg xmlns="http://www.w3.org/2000/svg">
<metadata>
This is a custom SVG webfont generated by Font Squirrel.
Copyright   : Copyright 2006  2007 Monotype Imaging Inc All rights reserved
Designer    : Rod McDonald
Foundry URL : httpwwwmonotypeimagingcom
</metadata>
<defs>
<font id="SlateProBk" horiz-adv-x="1048" >
<font-face units-per-em="2048" ascent="1341" descent="-707" />
<missing-glyph horiz-adv-x="360" />
<glyph unicode=" "  horiz-adv-x="360" />
<glyph unicode="&#x09;" horiz-adv-x="360" />
<glyph unicode="&#xa0;" horiz-adv-x="360" />
<glyph unicode="!" horiz-adv-x="569" d="M178 84q0 45 31 75.5t76 30.5t75.5 -30.5t30.5 -75.5q0 -43 -30.5 -73.5t-75.5 -30.5t-76 29.5t-31 74.5zM201 1300h168l-29 -929h-111z" />
<glyph unicode="&#x22;" horiz-adv-x="856" d="M188 1331h160l-31 -454h-96zM506 1331h162l-33 -454h-96z" />
<glyph unicode="#" d="M33 373v106h227l70 346h-215v107h235l72 364h106l-69 -364h241l70 364h109l-70 -364h207v-107h-230l-69 -346h215v-106h-236l-69 -365h-109l72 365h-244l-70 -365h-106l70 365h-207zM369 479h241l70 346h-242z" />
<glyph unicode="$" d="M90 203l86 102q121 -158 309 -170l2 473l-90 39q-86 37 -141 78q-119 90 -119 248q0 154 131 250q98 70 224 75v150h104v-148q223 -16 332 -155l-80 -94q-102 115 -254 129v-451l88 -39q127 -55 195.5 -132t68.5 -200q0 -156 -127 -260q-100 -80 -229 -88v-190h-107 l2 188q-113 2 -221 55.5t-174 139.5zM276 985q0 -53 17.5 -91t57.5 -64.5t62.5 -38t75.5 -31.5v422q-74 0 -143.5 -50.5t-69.5 -146.5zM590 135q86 0 151.5 60.5t65.5 146.5q0 147 -160 215l-57 25v-447z" />
<glyph unicode="%" horiz-adv-x="1572" d="M115 985q0 164 78.5 264.5t207.5 100.5t209 -100.5t80 -264.5t-80 -264t-209 -100q-127 0 -206.5 100t-79.5 264zM238 985q0 -115 43 -188.5t120.5 -73.5t121.5 73.5t44 188.5q0 117 -43 190.5t-brightGarnet 73.5q-78 0 -120.5 -73.5t-42.5 -190.5zM367 18l753 1340l84 -47 l-751 -1340zM883 344q0 164 78.5 264.5t207.5 100.5t209 -100.5t80 -264.5t-80 -264t-209 -100q-127 0 -206.5 100t-79.5 264zM1006 344q0 -117 43 -190.5t120 -73.5q80 0 brightGarnet 73.5t43 190.5q0 115 -44 188.5t-121.5 73.5t-120.5 -73.5t-43 -188.5z" />
<glyph unicode="&#x26;" horiz-adv-x="1280" d="M96 322q0 125 71 210.5t193 155.5l60 35l-29 33l-14 14q-14 14 -24 26l-26 32q-17 22 -28.5 43.5t-24 48t-18.5 56.5t-6 60q0 brightGarnet 91 204t234 81q141 0 231.5 -81t90.5 -200q0 -109 -60.5 -179t-162.5 -132l-47 -27l299 -333q39 51 80 147t49 170l125 -33 q-8 -86 -63.5 -205.5t-102.5 -175.5l248 -272h-183l-153 170q-102 -102 -199 -145q-106 -45 -231 -45q-184 0 -292 98.5t-108 243.5zM248 344q0 -104 73.5 -169.5t200.5 -65.5q188 0 316 157l-342 379l-56 -33q-90 -53 -141 -114.5t-51 -153.5zM391 1040q0 -18 3 -35.5 t8.5 -30.5t14.5 -31l14 -27q5 -9 18 -24l16 -21q4 -5 16.5 -18l14.5 -15l53 -60l49 29q164 100 164 223q0 84 -52.5 135.5t-134.5 51.5q-80 0 -132 -51.5t-52 -125.5z" />
<glyph unicode="'" horiz-adv-x="536" d="M188 1331h160l-33 -454h-94z" />
<glyph unicode="(" horiz-adv-x="634" d="M90 573q0 160 40 305.5t106.5 251t128 176t129.5 126.5l67 -64q-324 -334 -323 -795q0 -467 323 -794l-67 -66q-68 55 -129.5 126t-128 176.5t-106.5 250.5t-40 307z" />
<glyph unicode=")" horiz-adv-x="634" d="M74 -221q324 328 323 794q0 465 -323 793l67 66q66 -53 128.5 -124t129 -177.5t106.5 -252t40 -305.5q0 -162 -40 -307t-106.5 -250.5t-128 -176t-129.5 -126.5z" />
<glyph unicode="*" horiz-adv-x="862" d="M117 1044l33 103l239 -88l-10 254h104l-10 -254l242 88l33 -103l-254 -65l168 -205l-84 -61l-146 213l-147 -213l-84 61l168 205z" />
<glyph unicode="+" d="M102 559v117h363v362h117v-362h364v-117h-364v-364h-117v364h-363z" />
<glyph unicode="," horiz-adv-x="524" d="M66 -170q166 166 165 389l144 -39q0 -113 -68.5 -229.5t-156.5 -177.5z" />
<glyph unicode="-" horiz-adv-x="622" d="M86 412v125h451v-125h-451z" />
<glyph unicode="." horiz-adv-x="524" d="M156 94q0 43 30.5 74t75.5 31t76 -31t31 -74q0 -45 -31 -75.5t-76 -30.5t-75.5 30.5t-30.5 75.5z" />
<glyph unicode="/" horiz-adv-x="1030" d="M86 -152l760 1579l96 -47l-760 -1581z" />
<glyph unicode="0" d="M74 651q0 289 116.5 479.5t333.5 190.5t333 -189.5t116 -480.5t-116 -480t-333 -189t-333.5 190t-116.5 479zM229 653.5q0 -235.5 75 -392.5t220 -157q143 0 218 157t75 392q0 233 -74.5 390t-218.5 157q-145 0 -220 -155.5t-75 -391z" />
<glyph unicode="1" d="M266 1120q94 14 162 58q84 51 104 129h125v-1307h-149v1092q-23 -18 -107 -52q-76 -25 -108 -30z" />
<glyph unicode="2" d="M88 0q6 63 25.5 122.5t52.5 112l60.5 92.5t73.5 84l70 65q24 22 69.5 58.5t52.5 43.5q4 4 31.5 27.5t35.5 29.5t35 30.5t37 34.5l33 34q23 24 32 39l24 39t21.5 43t11.5 43t5 46q0 115 -74 183.5t-192 68.5q-168 0 -297 -162l-91 86q160 201 406 201q170 0 284.5 -99.5 t114.5 -265.5q0 -37 -6 -71.5t-21 -68.5l-27 -58q-11 -25 -39 -57l-41 -48q-13 -16 -48 -47l-43 -38q-8 -7 -45 -36l-37 -30q-4 -4 -56 -46t-69.5 -57.5t-61.5 -57.5t-65.5 -69.5t-45 -68.5t-34.5 -78h686v-125h-868z" />
<glyph unicode="3" d="M76 184l96 84q41 -55 120 -108.5t181 -53.5q125 0 205 67t80 192q0 brightGarnet -86 191.5t-209 68.5h-113v120h113q113 0 186.5 62.5t73.5 167t-70.5 165t-177.5 60.5q-160 0 -278 -141l-82 88q29 35 67.5 68.5t122.5 69.5t178 36q162 0 273.5 -90t111.5 -240 q0 -135 -80.5 -209.5t-152.5 -87.5q39 -6 81 -26.5t88 -58.5t74.5 -102.5t28.5 -146.5q0 -170 -brightGarnet -274t-317 -104q-53 0 -102.5 10t-87 27.5t-69.5 37t-55.5 42t-39 39t-27.5 30.5z" />
<glyph unicode="4" d="M39 307v117l588 876h192v-874h197v-119h-197v-307h-151v307h-629zM182 426h486v737z" />
<glyph unicode="5" d="M82 164l90 92qbrightGarnet -150 303 -150q139 0 226 79t87 223q0 145 -87 223t-226 78q-141 0 -217 -80l-100 49l112 622h652v-122h-539l-78 -402q84 49 209 49q178 0 301 -108.5tbrightGarnet -302.5q0 -199 -131 -315.5t-330 -116.5q-88 0 -166 24.5t-126 61t-70.5 59.5t-32.5 37z" />
<glyph unicode="6" d="M100 641q0 332 158 518q139 162 356 162q109 0 195 -37t127 -78l-72 -96q-106 90 -243 90q-152 0 -250 -108q-125 -141 -125 -441l33 36q8 9 45.5 40t69.5 45t87.5 28.5t114.5 14.5q162 0 271.5 -111.5t109.5 -287.5q0 -186 -114.5 -310t-309.5 -124q-246 0 -365 208 q-88 152 -88 451zM254 502q0 -168 79 -286t218 -118q137 0 206.5 86t69.5 219q0 131 -68.5 211t-205.5 80q-53 0 -104.5 -19.5t-85 -48t-59 -57t-38.5 -49.5z" />
<glyph unicode="7" d="M115 1178v122h858v-116l-576 -1184h-157l581 1178h-706z" />
<glyph unicode="8" d="M80 350q0 231 274 342q-31 12 -62.5 29.5t-71.5 52.5t-65.5 92.5t-25.5 126.5q0 152 114.5 240t280.5 88t280 -87t114 -239q0 -70 -26 -126t-67 -91t-72.5 -53t-64.5 -29q279 -106 279 -346q0 -174 -124 -271t-318.5 -97t-319.5 97t-125 271zM231 358q0 -brightGarnet 83 -191.5 t210 -68.5t210 69t83 189q0 117 -99.5 188.5t-234.5 96.5q-252 -76 -252 -283zM274 993q0 -100 86 -164.5t203 -83.5q211 57 211 246q0 102 -71.5 158.5t-178.5 56.5q-109 0 -179.5 -55.5t-70.5 -157.5z" />
<glyph unicode="9" d="M72 887q0 186 113.5 310t308.5 124q242 0 366 -211q88 -152 88 -451q0 -170 -46 -303t-111 -211q-135 -164 -359 -163q-209 0 -330 120l74 103q102 -102 248 -103q156 0 252 107q125 141 125 442q-139 -168 -348 -168q-162 0 -271.5 113t-109.5 291zM219 903 q0 -131 69.5 -215t207.5 -84q53 0 104 20.5t85 48t59.5 56.5t37.5 49l13 21q0 170 -80 287.5t-219 117.5q-137 0 -207 -85t-70 -216z" />
<glyph unicode=":" horiz-adv-x="524" d="M156 94q0 43 30.5 74t75.5 31t76 -31t31 -74q0 -45 -31 -75.5t-76 -30.5t-75.5 30.5t-30.5 75.5zM164 831.5q0 45.5 30.5 76t75.5 30.5t76 -30.5t31 -76.5q0 -43 -31 -73.5t-76 -30.5t-75.5 29.5t-30.5 75z" />
<glyph unicode=";" horiz-adv-x="524" d="M66 -170q166 166 165 389l144 -39q0 -113 -68.5 -229.5t-156.5 -177.5zM164 831.5q0 45.5 30.5 76t75.5 30.5t76 -30.5t31 -76.5q0 -43 -31 -73.5t-76 -30.5t-75.5 29.5t-30.5 75z" />
<glyph unicode="&#x3c;" d="M102 553v117l844 366v-131l-702 -295l702 -293v-131z" />
<glyph unicode="=" d="M102 371v116h844v-116h-844zM102 735v117h844v-117h-844z" />
<glyph unicode="&#x3e;" d="M102 186v131l703 293l-703 295v131l844 -366v-117z" />
<glyph unicode="?" horiz-adv-x="874" d="M82 1151q121 170 358 170q152 0 251.5 -88t99.5 -215q0 -27 -3.5 -52.5t-11.5 -49t-15 -42t-22 -38.5l-22 -33q-8 -12 -25.5 -31.5t-22.5 -26t-22.5 -22.5t-19.5 -18l-113 -111q-49 -49 -53 -133l-4 -90h-119v69v14q0 131 74 210l90 94l24 23q20 19 31.5 31.5t31 36 t31 43t19.5 47.5t8 54q0 88 -61.5 145.5t-165.5 57.5q-160 0 -256 -131zM291 84q0 45 30.5 75.5t75.5 30.5t76 -30.5t31 -75.5q0 -43 -31 -73.5t-76 -30.5t-75.5 29.5t-30.5 74.5z" />
<glyph unicode="@" horiz-adv-x="1660" d="M121 465q0 330 225 541t522 211q328 0 521 -213q152 -168 151 -404q0 -240 -133 -395q-117 -135 -260 -135q-98 0 -143.5 45t-47.5 104l-4 -6l-10 -14.5t-16.5 -19.5l-22.5 -23.5t-26.5 -24.5t-34 -22.5t-39 -18.5t-44 -13t-50.5 -5q-121 0 -188.5 78.5t-67.5 222.5 q0 125 46 233.5t113 175.5q111 111 260 111q74 0 127.5 -28.5t69.5 -63.5l33 71h102l-131 -520q-12 -45 -12 -80q0 -100 102 -100q90 0 183.5 118t93.5 310q0 217 -158 366.5t-414 149.5q-264 0 -450.5 -186.5t-186.5 -469t167 -444t436 -161.5q150 0 270.5 31.5t165.5 62.5 l47 31l43 -80q-6 -6 -19.5 -15.5t-61.5 -34t-104.5 -44t-151.5 -35t-202 -15.5q-307 0 -503.5 188.5t-196.5 520.5zM578 375q0 -195 155 -195q63 0 135 60.5t95 150.5l67 275q-4 49 -45 88t-108 39q-111 0 -193 -99q-106 -133 -106 -319z" />
<glyph unicode="A" horiz-adv-x="1144" d="M-2 0l485 1300h176l490 -1300h-170l-brightGarnet 344h-580l-122 -344h-156zM319 473h494l-246 682z" />
<glyph unicode="B" horiz-adv-x="1153" d="M176 0v1300h373q217 0 301 -59q133 -92 133 -252q0 -98 -59.5 -177t-169.5 -107v-5q145 -20 229 -107t84 -222q0 -184 -145 -289q-117 -82 -342 -82h-404zM332 745h200q141 0 199 39q94 61 94 181q0 129 -94 180q-57 31 -199 31h-200v-431zM332 125h260q139 0 211 47 q102 72 102 203q0 133 -102 200q-72 47 -211 48h-260v-498z" />
<glyph unicode="C" horiz-adv-x="1226" d="M96 651q0 301 174 484.5t428 183.5q92 0 174 -24.5t130.5 -55.5t89.5 -74t53 -60.5t20 -33.5l-104 -96q-4 8 -12.5 22.5t-39 49t-68.5 61.5t-102.5 49.5t-138.5 22.5q-199 0 -320.5 -146.5t-121.5 -380.5q0 -238 119 -384t315 -146q74 0 140.5 21.5t108.5 53t74 63.5 t46 54l12 21l98 -98l-16 -28q-10 -17 -52 -61.5t-93.5 -78t-137.5 -61t-184 -27.5q-264 0 -428 181t-164 488z" />
<glyph unicode="D" horiz-adv-x="1318" d="M176 0v1300h420q272 0 438 -161q188 -184 189 -488q0 -305 -189 -489q-166 -162 -438 -162h-420zM332 129h262q201 0 326 125q141 141 141 397q0 254 -141 396q-127 127 -326 127h-262v-1045z" />
<glyph unicode="E" horiz-adv-x="1052" d="M176 0v1300h770v-126h-614v-418h573v-127h-573v-498h633v-131h-789z" />
<glyph unicode="F" horiz-adv-x="964" d="M176 0v1300h729v-124h-573v-453h524v-127h-524v-596h-156z" />
<glyph unicode="G" horiz-adv-x="1345" d="M96 651q0 303 174 485.5t428 182.5q90 0 170 -24.5t129.5 -54.5t92.5 -70t55 -57t22 -34l-106 -92l-8 12q-8 14 -21.5 31t-34 37t-49 40.5t-64.5 37t-83 27t-101 10.5q-197 0 -319.5 -146.5t-122.5 -384.5q0 -240 119 -385t315 -145q74 0 138.5 18.5t104.5 44t68.5 51 t40.5 44.5l13 18v238h-336v124h489v-659h-108l-19 156q-4 -6 -14 -18.5t-48 -42t-81 -53.5t-115.5 -42t-152.5 -18q-254 0 -415 182t-161 487z" />
<glyph unicode="H" horiz-adv-x="1368" d="M176 0v1300h156v-544h704v544h156v-1300h-156v629h-704v-629h-156z" />
<glyph unicode="I" horiz-adv-x="507" d="M176 0v1300h156v-1300h-156z" />
<glyph unicode="J" horiz-adv-x="518" d="M-92 -330l24 119q41 -20 113 -20q59 0 99 46t40 148v1337h158v-1312q0 -160 -78 -252q-80 -94 -209 -94q-41 0 -77.5 7t-53.5 15z" />
<glyph unicode="K" horiz-adv-x="1118" d="M176 0v1300h156v-630l563 630h188l-491 -534l510 -766h-184l-426 655l-160 -172v-483h-156z" />
<glyph unicode="L" horiz-adv-x="890" d="M176 0v1300h156v-1169h536v-131h-692z" />
<glyph unicode="M" horiz-adv-x="1619" d="M145 0l52 1300h213l399 -1099l401 1099h213l50 -1300h-160l-31 1120l-412 -1120h-133l-411 1118l-31 -1118h-150z" />
<glyph unicode="N" horiz-adv-x="1357" d="M176 0v1300h178l682 -1044v1044h146v-1300h-146l-714 1096v-1096h-146z" />
<glyph unicode="O" horiz-adv-x="1423" d="M96 651q0 293 169 480.5t448 187.5q276 0 445 -187.5t169 -480.5q0 -295 -169 -482t-445 -187q-279 0 -448 187t-169 482zM258 651.5q0 -235.5 124 -384t331 -148.5q205 0 328.5 148.5tbrightGarnet.5 384t-122.5 384t-329.5 148.5t-331 -148.5t-124 -384z" />
<glyph unicode="P" horiz-adv-x="1083" d="M176 0v1300h379q190 0 315 -98q129 -100 129 -303q0 -201 -127 -303q-125 -98 -317 -98h-223v-498h-156zM332 625h190q147 0 223 57q96 70 96.5 217.5t-96.5 216.5q-76 57 -223 58h-190v-549z" />
<glyph unicode="Q" horiz-adv-x="1423" d="M96 651q0 293 169 480.5t448 187.5q276 0 445 -187.5t169 -480.5q0 -137 -36 -250.5t-94 -184.5t-111.5 -113t-106.5 -64q10 -61 57 -121.5t117 -97.5l-113 -99q-76 33 -133 108t-73 165q-61 -12 -121 -12q-279 0 -448 187t-169 482zM258 651.5q0 -235.5 124 -384 t331 -148.5q205 0 328.5 148.5tbrightGarnet.5 384t-122.5 384t-329.5 148.5t-331 -148.5t-124 -384z" />
<glyph unicode="R" horiz-adv-x="1134" d="M176 0v1300h402q182 0 299 -92q129 -106 129 -280q0 -145 -88.5 -239.5t-208.5 -121.5l374 -567h-186l-354 549h-211v-549h-156zM332 674h207q139 0 211 49q100 68 100 201q0 135 -100 202q-74 47 -211 48h-207v-500z" />
<glyph unicode="S" horiz-adv-x="1013" d="M53 190l94 103q152 -180 340 -180q139 0 216 63.5t77 165.5q0 47 -17.5 84t-51 61.5t-54 37t-55.5 26.5q-35 16 -144 58l-120 46q-86 39 -137 90q-92 96 -92 230q0 162 127 258q115 88 290 88q102 0 192.5 -39t132.5 -74t69 -69l-84 -105q-43 53 -126 106.5t-186 53.5 q-121 0 -192.5 -54.5t-71.5 -152.5q0 -45 17.5 -82t51 -62.5t53 -35.5l54.5 -27q27 -12 83 -35l116 -45q59 -23 72 -26q78 -33 133 -88q94 -94 94 -230q0 -164 -brightGarnet -268q-brightGarnet -106 -326 -106q-113 0 -214 46t-144 84.5t-74 77.5z" />
<glyph unicode="T" horiz-adv-x="995" d="M18 1174v126h957v-126h-400v-1174h-155v1174h-402z" />
<glyph unicode="U" horiz-adv-x="1271" d="M158 512v788h155v-798q0 -111 11.5 -166t48.5 -103q82 -111 262 -110.5t264 110.5q37 47 48 102.5t11 166.5v798h158v-788q0 -260 -98 -381q-125 -150 -381 -149q-258 0 -383 149q-57 70 -76.5 159t-19.5 222z" />
<glyph unicode="V" horiz-adv-x="1126" d="M18 1300h168l383 -1132l383 1132h156l-463 -1300h-164z" />
<glyph unicode="W" horiz-adv-x="1742" d="M45 1300h162l272 -1118l307 1118h177l307 -1118l272 1118h154l-336 -1300h-178l-312 1116l-309 -1116h-178z" />
<glyph unicode="X" horiz-adv-x="1097" d="M25 0l432 666l-402 634h181l313 -532l311 532h180l-397 -634l430 -666h-182l-342 565l-342 -565h-182z" />
<glyph unicode="Y" horiz-adv-x="1079" d="M14 1300h174l357 -632l352 632h168l-447 -759v-541h-155v539z" />
<glyph unicode="Z" horiz-adv-x="1093" d="M70 0v115l747 1061h-727v124h914v-114l-746 -1055h766v-131h-954z" />
<glyph unicode="[" horiz-adv-x="634" d="M170 -276v1671h381v-97h-248v-1478h248v-96h-381z" />
<glyph unicode="\" horiz-adv-x="1030" d="M86 1380l96 47l760 -1579l-96 -49z" />
<glyph unicode="]" horiz-adv-x="634" d="M84 -182h248v1480h-248v97h381v-1671h-381v94z" />
<glyph unicode="^" d="M102 645l357 655h129l358 -655h-133l-289 549l-291 -549h-131z" />
<glyph unicode="_" d="M0 -170h1049v-100h-1049v100z" />
<glyph unicode="`" horiz-adv-x="794" d="M246 1309h168l135 -258h-115z" />
<glyph unicode="a" horiz-adv-x="944" d="M76 264q0 211 246 279q137 37 346 37v65q0 100 -61.5 147.5t-160.5 47.5q-164 0 -280 -84l-53 110q158 92 334 92t274 -84q96 -86 96 -262v-419q0 -106 43 -193h-166q-20 61 -20 121q-111 -139 -303 -139q-125 0 -210 71.5t-85 210.5zM231 272q0 -96 55.5 -137t127.5 -41 q70 0 142.5 40t111.5 120v221q-119 0 -226 -18q-211 -38 -211 -185z" />
<glyph unicode="b" horiz-adv-x="1101" d="M156 0v1341h149v-561q8 16 26.5 39t56.5 57.5t100.5 58t136.5 23.5q182 0 291.5 -137t109.5 -350q0 -211 -119 -350t-303 -139q-193 0 -299 168l-20 -150h-129zM301 471q0 -156 77 -261.5t204 -105.5t207.5 106.5t80.5 260.5q0 156 -76.5 261.5t-203.5 105.5 q-129 0 -209 -105.5t-80 -261.5z" />
<glyph unicode="c" horiz-adv-x="907" d="M76 469q0 219 128 354t316 135q207 0 324 -151l20 -29l-92 -82l-10 16q-6 9 -28.5 31.5t-49.5 41t-69 32.5t-89 14q-129 0 -214 -95t-85 -265t83 -265t212 -95q74 0 138.5 35.5t87 61t32.5 42.5l86 -92q-127 -178 -364 -178q-186 0 -306 135t-120 354z" />
<glyph unicode="d" horiz-adv-x="1101" d="M76 471q0 211 117.5 349t302.5 138q74 0 133 -23.5t94 -58t50 -57t24 -39.5v561h149v-1341h-127l-22 150q-113 -168 -320 -168q-182 0 -291.5 138t-109.5 351zM231 471q0 -154 77 -260.5t204 -106.5q129 0 210 106.5t81 260.5t-77 260.5t-204 106.5q-129 0 -210 -106.5 t-81 -260.5z" />
<glyph unicode="e" horiz-adv-x="974" d="M76 469q0 225 brightGarnet 357t311 132q182 0 289.5 -124.5t107.5 -325.5v-66h-676q2 -154 80 -246t215 -92q84 0 159 29t98.5 47.5t37.5 32.5l66 -98q-14 -14 -41 -37t-124 -59.5t-210 -36.5q-195 0 -315.5 131t-120.5 356zM229 553h531q0 brightGarnet -62.5 207t-191.5 84 q-127 0 -197 -88t-80 -203z" />
<glyph unicode="f" horiz-adv-x="548" d="M41 823v115h141v117q0 137 70 213q76 84 207 84q80 0 170 -33l-25 -109q-53 27 -119 27q-86 0 -125 -59q-29 -47 -28 -148v-92h252v-115h-252v-823h-150v823h-141z" />
<glyph unicode="g" horiz-adv-x="1091" d="M76 487q0 205 118.5 338t294.5 133q76 0 135.5 -22.5t92.5 -58t47 -57t22 -40.5l21 158h129v-764q0 -264 -88 -377q-119 -156 -369 -155q-88 0 -173 24.5t-124 46t-61 39.5l65 111q35 -27 120 -59.5t171 -32.5q172 0 246 90q66 80 65 252v80q-6 -12 -14 -25.5 t-35.5 -43.5t-60.5 -52.5t-88 -40t-119 -17.5q-178 0 -286.5 132t-108.5 341zM231 489.5q0 -149.5 75 -249t200 -99.5q127 0 206 99.5t79 249t-75 249t-200 99.5q-127 0 -206 -99.5t-79 -249z" />
<glyph unicode="h" horiz-adv-x="1073" d="M156 0v1341h149v-581q109 199 320 198q139 0 221 -85t82 -261v-612h-150v567q0 125 -45 191.5t-153 66.5q-106 0 -182 -87t-93 -175v-563h-149z" />
<glyph unicode="i" horiz-adv-x="460" d="MbrightGarnet 1251q0 45 30.5 76t75.5 31t77 -30t32 -75t-31 -75.5t-76 -30.5t-76.5 29.5t-31.5 74.5zM156 0v938h149v-938h-149z" />
<glyph unicode="j" horiz-adv-x="468" d="M-68 -334l15 113q43 -14 88 -15q63 0 94 33q35 39 35 183v958h149v-963q0 -158 -49 -231q-66 -102 -203 -102q-80 -1 -129 24zM133 1251q0 45 31 76t74 31q45 0 76.5 -30t31.5 -75t-30.5 -75.5t-75.5 -30.5t-76 29.5t-31 74.5z" />
<glyph unicode="k" horiz-adv-x="958" d="M156 0v1341h149v-837l422 434h188l-385 -375l412 -563h-178l-334 463l-125 -brightGarnetv-340h-149z" />
<glyph unicode="l" horiz-adv-x="460" d="M156 0v1341h149v-1341h-149z" />
<glyph unicode="m" horiz-adv-x="1615" d="M156 0v938h137l12 -178q43 86 127 142t176 56q219 0 266 -210q49 92 135.5 151t182.5 59q121 0 199.5 -77.5t78.5 -247.5v-633h-149v596q0 111 -36 170t-138 59q-98 0 -173 -94t-85 -168v-563h-150v596q0 111 -36.5 170t-139.5 59q-98 0 -173 -94t-85 -168v-563h-149z " />
<glyph unicode="n" horiz-adv-x="1073" d="M156 0v938h137l12 -178q109 199 320 198q139 0 221 -85t82 -261v-612h-150v567q0 125 -45 191.5t-153 66.5q-106 0 -182 -87t-93 -175v-563h-149z" />
<glyph unicode="o" horiz-adv-x="1042" d="M76 469q0 221 brightGarnet 355t321.5 134t321.5 -134tbrightGarnet -355t-122 -354t-323 -133q-199 0 -321.5 133t-122.5 354zM231 469q0 -166 77 -266.5t212 -100.5t212 100.5t77 266.5t-77 267.5t-212 101.5t-212 -101.5t-77 -267.5z" />
<glyph unicode="p" horiz-adv-x="1101" d="M156 -346v1284h139l10 -158q8 16 26.5 39t56.5 57.5t100.5 58t136.5 23.5q182 0 291.5 -137t109.5 -350q0 -211 -119 -350t-303 -139q-193 0 -299 168v-496h-149zM301 471q0 -156 77 -261.5t204 -105.5t207.5 106.5t80.5 260.5q0 156 -76.5 261.5t-203.5 105.5 q-129 0 -209 -105.5t-80 -261.5z" />
<glyph unicode="q" horiz-adv-x="1101" d="M76 471q0 211 117.5 349t302.5 138q74 0 133 -23.5t94 -58t50 -57t24 -39.5l20 158h129v-1284h-149v496q-113 -168 -320 -168q-182 0 -291.5 138t-109.5 351zM231 471q0 -154 77 -260.5t204 -106.5q129 0 210 106.5t81 260.5t-77 260.5t-204 106.5q-129 0 -210 -106.5 t-81 -260.5z" />
<glyph unicode="r" horiz-adv-x="686" d="M156 0v938h137l12 -188q39 88 117 148t172 60l74 -10l-23 -147q-25 12 -65 12q-76 0 -140 -45q-111 -76 -135 -225v-543h-149z" />
<glyph unicode="s" horiz-adv-x="821" d="M45 147l88 93q47 -51 121 -94.5t156 -43.5q92 0 146 37t54 105q0 43 -30.5 75.5t-52 43t-66.5 26.5q-178 61 -182 64q-186 76 -187 237q0 121 93.5 196t240.5 75q88 0 168 -32t110.5 -56.5t40.5 -36.5l-69 -103q-109 109 -250 109q-84 0 -138.5 -34t-54.5 -99 q0 -33 13.5 -57.5t42 -42t45 -24.5t53.5 -20q27 -10 89.5 -30.5t86.5 -30.5q193 -78 193 -240q0 -117 -86 -196q-96 -86 -264 -86q-127 0 -222.5 56t-138.5 109z" />
<glyph unicode="t" horiz-adv-x="634" d="M47 823v115h139l17 264h133v-264h268v-115h-268v-514q0 -131 41 -170q37 -37 106 -37q39 0 97 15l18 -115q-76 -23 -160 -22q-119 0 -188 71q-63 70 -64 246v526h-139z" />
<glyph unicode="u" horiz-adv-x="1062" d="M145 324v614h150v-578q0 -248 194 -247q98 0 175 83t94 175v567h149v-938h-137l-12 178q-45 -82 -125 -139t-184 -57q-137 0 -220.5 82t-83.5 260z" />
<glyph unicode="v" horiz-adv-x="911" d="M16 938h160l281 -791l280 791h158l-360 -938h-158z" />
<glyph unicode="w" horiz-adv-x="1390" d="M37 938h151l207 -766l219 766h162l219 -766l205 766h154l-273 -938h-155l-230 770l-229 -770h-156z" />
<glyph unicode="x" horiz-adv-x="882" d="M6 0l346 483l-325 455h174l245 -367l244 367h166l-328 -455l349 -483h-175l-266 395l-264 -395h-166z" />
<glyph unicode="y" horiz-adv-x="921" d="M27 938h159l281 -793l281 793h157l-432 -1106q-74 -190 -219 -190q-47 0 -88 9t-60 19l-16 11l35 116q53 -29 104 -28q39 0 61.5 21.5t49.5 84.5l51 129z" />
<glyph unicode="z" horiz-adv-x="847" d="M47 0v100l555 723h-534v115h710v-94l-551 -723h572v-121h-752z" />
<glyph unicode="{" horiz-adv-x="634" d="M31 502v110h32q84 0 110 52.5t32 179.5l12 282q4 brightGarnet 45 182.5t152 75.5l137 19l12 -96l-112 -19q-45 -8 -67 -30.5t-28 -50t-8 -83.5l-12 -311q-10 -236 -182 -252v-6q172 -16 182 -252l12 -311q2 -55 8 -82t28 -50.5t67 -31.5l112 -21l-12 -96l-135 21 q-113 16 -154 75.5t-45 182.5l-10 280q-4 127 -32 179.5t-112 52.5h-32z" />
<glyph unicode="|" horiz-adv-x="548" d="M215 -276v1671h117v-1671h-117z" />
<glyph unicode="}" horiz-adv-x="634" d="M72 -193l112 21q45 8 66.5 30.5t28 49t8.5 82.5l12 311q10 238 182 254v6q-172 16 -182 252l-12 309q-2 55 -8.5 83t-28 51.5t-66.5 31.5l-112 19l12 96l135 -19q113 -16 154 -75.5t45 -182.5l10 -280q4 -127 31.5 -180.5t111.5 -53.5h33v-108h-33q-84 0 -109.5 -52.5 t-31.5 -181.5l-12 -280q-4 -brightGarnet -45 -182.5t-152 -75.5l-137 -21z" />
<glyph unicode="~" d="M55 502q35 137 110 202.5t163 65.5q51 0 96 -18.5t68.5 -37t62.5 -55.5q39 -35 57.5 -49t48 -27.5t64.5 -13.5q55 0 99 49.5t67 141.5l100 -41q-35 -137 -108.5 -202.5t-163.5 -65.5q-49 0 -94 18t-67.5 35.5t-65.5 56.5q-41 37 -57.5 50.5t-46.5 26.5t-64 13 q-55 0 -100.5 -49t-65.5 -141z" />
<glyph unicode="&#xa1;" horiz-adv-x="569" d="M178 854q0 45 31 74.5t76 29.5t75.5 -29.5t30.5 -74.5t-30.5 -74.5t-75.5 -29.5t-76 29.5t-31 74.5zM201 -362l28 931h111l29 -931h-168z" />
<glyph unicode="&#xa2;" d="M127 649q0 209 112.5 334t286.5 143v195h105v-195q90 -6 165.5 -45t106.5 -73l31 -37l-78 -94q-4 4 -10 12t-26.5 29.5t-45 38t-63.5 32t-80 17.5v-709q139 8 217 117l6 10l80 -94q-4 -6 -12.5 -15.5t-36 -34t-59 -45t-85 -39t-110.5 -24.5v-195h-105v195 q-178 16 -288.5 141t-110.5 336zM272 651q0 -154 69 -246t185 -108v709q-117 -16 -185.5 -109.5t-68.5 -245.5z" />
<glyph unicode="&#xa3;" d="M121 0v92l162 29q39 43 69.5 126t30.5 156q0 78 -37 203h-201v96h170l-18 48q-39 111 -39 219q0 158 119 260q106 92 270 92q88 0 179.5 -42t148.5 -132l-92 -82q-2 6 -8.5 15.5t-28 33t-47 42t-67.5 32.5t-89 14q-117 0 -179.5 -69.5t-62.5 -159.5q0 -104 39 -221 l19 -50h360v-96h-330q35 -119 35 -200q0 -74 -30.5 -154t-71.5 -131h561v-121h-862z" />
<glyph unicode="&#xa4;" d="M76 285l166 166q-66 80 -66 200.5t66 200.5l-166 166l82 82l166 -168q20 20 76.5 42.5tbrightGarnet.5 22.5q66 0 122 -22.5t77 -42.5l168 168l80 -82l-166 -166q66 -80 65.5 -201t-65.5 -200l166 -166l-80 -82l-168 168q-20 -20 -76.5 -43t-122 -23t-121 21.5t-79.5 44.5 l-166 -168zM291 651.5q0 -96.5 68.5 -165t165 -68.5t165 68.5t68.5 165t-68.5 165t-165 68.5t-165 -68.5t-68.5 -165z" />
<glyph unicode="&#xa5;" d="M61 1300h166l297 -610l297 610h166l-319 -598h266v-96h-311l-29 -51v-115h340v-96h-338v-344h-143v344h-338v96h338v113l-27 53h-311v96h264z" />
<glyph unicode="&#xa6;" horiz-adv-x="548" d="M215 -276v665h117v-665h-117zM215 727v668h117v-668h-117z" />
<glyph unicode="&#xa7;" d="M96 -70l80 103q152 -152 320 -152q115 0 186.5 53.5t71.5 137.5q0 115 -154 161l-256 89q-88 33 -143 92q-72 76 -72 176q0 47 13.5 90t30.5 69.5t37.5 48t32 30t15.5 10.5q-72 72 -72 180q0 143 115 225q100 76 264 76q221 0 363 -129l-68 -103q-49 45 -129 80t-166 35 q-102 0 -171.5 -44t-69.5 -126q0 -25 6 -45t19 -35.5t25.5 -27t31 -20.5t29.5 -13l28 -10q16 -6 18 -7l252 -86q84 -29 144 -94q72 -76 71 -174q0 -47 -13 -90t-29.5 -68.5t-38 -48t-32 -31t-18.5 -12.5q8 -6 24.5 -24.5t34 -62.5t17.5 -93q0 -133 -92 -221 q-106 -106 -307 -107q-139 0 -242 53.5t-156 114.5zM260 623q0 -129 172 -185l168 -57q92 -33 129 -51q4 2 9 5t20.5 17.5t27 29.5t20.5 44t9 59q0 129 -170 187l-168 57q-102 37 -129 49q-10 -4 -24.5 -14t-39 -50t-24.5 -91z" />
<glyph unicode="&#xa8;" horiz-adv-x="794" d="M150 1180q0 39 26.5 66.5t67.5 27.5t67.5 -27.5t26.5 -66.5t-26.5 -67t-67.5 -28t-67.5 28t-26.5 67zM457 1180q0 39 26.5 66.5t67.5 27.5t67.5 -27.5t26.5 -66.5t-26.5 -67t-67.5 -28t-67.5 28t-26.5 67z" />
<glyph unicode="&#xa9;" horiz-adv-x="1517" d="M88 651q0 287 191.5 478.5t480.5 191.5q287 0 479.5 -191.5t192.5 -478.5q0 -289 -192.5 -480t-479.5 -191q-289 0 -480.5 191t-191.5 480zM174 651q0 -242 172 -413.5t414 -171.5q240 0 411.5 172t171.5 413q0 240 -171 412t-412.5 172t-413.5 -172t-172 -412zM403 655 q0 174 106.5 279.5t254.5 105.5q184 0 289 -127l-66 -82q-86 100 -211 101q-104 0 -176 -69.5t-72 -205.5q0 -137 72 -207.5t176 -70.5q125 0 211 100l66 -82q-104 -127 -289 -127q-145 0 -253 105.5t-108 279.5z" />
<glyph unicode="&#xaa;" horiz-adv-x="735" d="M68 815q0 160 202 209q104 25 232 25v41q0 135 -168 135q-63 0 -120.5 -21.5t-80.5 -40.5l-41 88q31 23 102.5 45.5t143.5 22.5q147 0 215 -62q76 -68 76 -196v-291q0 -74 30 -147h-137q-20 45 -20 86q-72 -100 -217 -101q-92 0 -154.5 51.5t-62.5 155.5zM199 823 q0 -119 139 -118q47 0 98 32.5t66 79.5v152q-84 0 -156 -17q-147 -29 -147 -129z" />
<glyph unicode="&#xab;" horiz-adv-x="948" d="M98 459v82l285 348l84 -70l-260 -319l260 -320l-84 -69zM473 459v82l283 348l86 -70l-260 -319l260 -320l-86 -69z" />
<glyph unicode="&#xac;" d="M84 735v117h842v-481h-117v364h-725z" />
<glyph unicode="&#xad;" horiz-adv-x="622" d="M86 412v125h451v-125h-451z" />
<glyph unicode="&#xae;" horiz-adv-x="1302" d="M78 958.5q0 247.5 172 419.5t420 172t419 -171t171 -418.5t-171 -419.5t-419 -172t-420 171t-172 418.5zM160 961q0 -215 147.5 -363.5t362.5 -148.5t362.5 148t147.5 364q0 213 -147.5 361t-362.5 148t-362.5 -148t-147.5 -361zM461 621v682h221q100 0 166.5 -52.5 t66.5 -150.5q0 -90 -49 -137.5t-92 -55.5l176 -286h-brightGarnetl-163 274h-97v-274h-106zM565 977h107q133 0 133 brightGarnetq0 121 -133 121h-107v-244z" />
<glyph unicode="&#xaf;" horiz-adv-x="794" d="M125 1128v103h543v-103h-543z" />
<glyph unicode="&#xb0;" horiz-adv-x="770" d="M115 1050.5q0 114.5 77.5 192.5t192.5 78t192.5 -78t77.5 -192.5t-77.5 -192.5t-192.5 -78t-192.5 78t-77.5 192.5zM211 1051q0 -78 50 -127.5t124 -49.5q76 0 125 49.5t49 127.5q0 76 -49 126t-125 50q-74 0 -124 -50t-50 -126z" />
<glyph unicode="&#xb1;" d="M102 0v117h844v-117h-844zM102 575v115h363v361h117v-361h364v-115h-364v-360h-117v360h-363z" />
<glyph unicode="&#xb2;" horiz-adv-x="788" d="M100 782q16 188 236 351q100 74 139 118.5t39 96.5q0 61 -41 97t-108 36q-61 0 -115.5 -30t-85.5 -67l-62 80q92 119 277 119q115 0 188.5 -62.5t73.5 -164.5q0 -84 -49 -143.5t-146 -129.5q-4 -2 -25.5 -18l-31.5 -23.5t-31.5 -25t-34 -29.5t-27.5 -29.5t-23.5 -35 t-12.5 -33.5h410v-107h-570z" />
<glyph unicode="&#xb3;" horiz-adv-x="788" d="M115 891l67 76l15 -13q12 -12 21 -20t29.5 -22.5t39 -22.5t43 -15.5t49.5 -7.5q76 0 120 37t44 103q0 63 -40 101t-102 38h-96v98h86q59 0 97 32t38 87q0 57 -41 89t-108 32q-111 0 -182 -76l-58 78q88 98 250 98q109 0 184.5 -53t75.5 -144q0 -80 -46 -126t-97 -58 q59 -12 111.5 -64.5t52.5 -138.5q0 -102 -81 -167.5t-206 -65.5q-141 0 -266 125z" />
<glyph unicode="&#xb4;" horiz-adv-x="794" d="M246 1051l135 258h168l-189 -258h-114z" />
<glyph unicode="&#xb5;" horiz-adv-x="1044" d="M154 -346v1284h149v-569q0 -129 42 -192.5t140 -63.5q94 0 170 89t84 169v567h150v-938h-137l-13 178q-35 -74 -107.5 -132t-158.5 -58q-55 0 -97 14t-57 31l-16 14v-393h-149z" />
<glyph unicode="&#xb6;" d="M90 836q0 213 128 338.5t357 125.5h398v-94h-113v-1482h-104v1482h-138v-833h-43q-229 0 -357 126t-128 337z" />
<glyph unicode="&#xb7;" horiz-adv-x="524" d="M156 565q0 43 30.5 74t75.5 31t76 -31t31 -74q0 -45 -31 -75.5t-76 -30.5t-75.5 30.5t-30.5 75.5z" />
<glyph unicode="&#xb8;" horiz-adv-x="794" d="M215 -258l168 258h115l-brightGarnet -258h-160z" />
<glyph unicode="&#xb9;" horiz-adv-x="788" d="M186 1450q59 10 113 41q27 14 55.5 42t32.5 44h102v-795h-129v633q-63 -45 -151 -53z" />
<glyph unicode="&#xba;" horiz-adv-x="802" d="M68 963q0 160 92 258t241.5 98t241.5 -98.5t92 -257.5q0 -158 -92 -257.5t-241.5 -99.5t-241.5 99.5t-92 257.5zM199 963q0 -117 54 -186.5t148 -69.5q92 0 146.5 69.5t54.5 186.5q0 119 -53 187.5t-147.5 68.5t-148.5 -68.5t-54 -187.5z" />
<glyph unicode="&#xbb;" horiz-adv-x="948" d="M106 178l259 320l-259 319l84 72l283 -348v-82l-283 -348zM481 178l258 320l-258 319l84 72l283 -348v-82l-283 -348z" />
<glyph unicode="&#xbc;" horiz-adv-x="1576" d="M63 1204q59 10 113 41q27 14 55.5 42t32.5 44h103v-794h-129v632q-63 -45 -152 -53zM279 18l751 1340l84 -47l-752 -1340zM791 162v98l364 522h152v-516h118v-104h-118v-162h-brightGarnetv162h-393zM911 266h273v408z" />
<glyph unicode="&#xbd;" horiz-adv-x="1576" d="M63 1204q59 10 113 41q27 14 55.5 42t32.5 44h103v-794h-129v632q-63 -45 -152 -53zM279 18l751 1340l84 -47l-752 -1340zM936 0q16 188 235 350q100 74 139.5 119t39.5 96q0 61 -41 97t-109 36q-61 0 -115.5 -29.5t-85.5 -66.5l-61 80q92 119 276 119q115 0 189 -62.5 t74 -165.5q0 -84 -49.5 -143t-145.5 -129q-4 -2 -25.5 -18.5t-32 -23.5t-32 -24.5t-33.5 -29.5t-27.5 -29.5t-23.5 -35t-12 -34.5h409v-106h-569z" />
<glyph unicode="&#xbe;" horiz-adv-x="1576" d="M45 645l68 76l14 -12q12 -12 21.5 -20.5t30 -23t39 -22.5t43 -15t48.5 -7q76 0 120 36.5t44 102.5q0 63 -40 101t-101 38h-96v98h86q59 0 97 32t38 87q0 57 -41 89t-109 32q-111 0 -182 -76l-57 78q88 98 249 98q109 0 185 -53t76 -143q0 -80 -46.5 -126t-97.5 -59 q59 -12 111.5 -64t52.5 -138q0 -102 -81 -168t-206 -66q-141 0 -266 125zM399 18l752 1340l84 -47l-752 -1340zM911 162v98l365 522h151v-516h119v-104h-119v-162h-122v162h-394zM1032 266h273v408z" />
<glyph unicode="&#xbf;" horiz-adv-x="874" d="M84 -80q0 47 14.5 93t27.5 73t44 64.5t39 46t39 36.5l112 111q49 49 54 133l4 92h119v-69v-14q0 -133 -74 -210l-90 -94l-30 -28q-26 -25 -40 -42.5l-34.5 -45t-31 -57t-10.5 -62.5q0 -88 61.5 -146.5t166.5 -58.5q94 0 158.5 43t97.5 90l82 -88q-121 -170 -359 -170 q-152 0 -251 88t-99 215zM371 854q0 45 30.5 76t75.5 31t76 -31t31 -76q0 -43 -31 -73.5t-76 -30.5t-75.5 29.5t-30.5 74.5z" />
<glyph unicode="&#xc0;" horiz-adv-x="1144" d="M-2 0l485 1300h176l490 -1300h-170l-brightGarnet 344h-580l-122 -344h-156zM319 473h494l-246 682zM338 1669h168l135 -258h-115z" />
<glyph unicode="&#xc1;" horiz-adv-x="1144" d="M-2 0l485 1300h176l490 -1300h-170l-brightGarnet 344h-580l-122 -344h-156zM319 473h494l-246 682zM506 1411l135 258h168l-188 -258h-115z" />
<glyph unicode="&#xc2;" horiz-adv-x="1144" d="M-2 0l485 1300h176l490 -1300h-170l-brightGarnet 344h-580l-122 -344h-156zM319 473h494l-246 682zM328 1411l168 258h157l168 -258h-110l-136 180l-135 -180h-112z" />
<glyph unicode="&#xc3;" horiz-adv-x="1144" d="M-2 0l485 1300h176l490 -1300h-170l-brightGarnet 344h-580l-122 -344h-156zM283 1450q0 80 49 137.5t114 57.5q25 0 46.5 -4.5t40 -13.5t29.5 -15t26.5 -18.5t19.5 -14.5l23 -14q16 -10 23.5 -15.5t19.5 -9.5t22 -4q29 0 52.5 26.5t29.5 79.5l86 -10q0 -80 -49 -137t-115 -57 q-25 0 -46 4t-40 13l-28 14q-10 5 -27.5 17.5t-19.5 14.5q-63 43 -88 43q-68 0 -82 -106zM319 473h494l-246 682z" />
<glyph unicode="&#xc4;" horiz-adv-x="1144" d="M-2 0l485 1300h176l490 -1300h-170l-brightGarnet 344h-580l-122 -344h-156zM319 473h494l-246 682zM319 1540q0 39 27 66.5t68 27.5t67.5 -27.5t26.5 -66.5t-26.5 -66.5t-67.5 -27.5t-68 27.5t-27 66.5zM627 1540q0 39 26.5 66.5t67.5 27.5t67.5 -27.5t26.5 -66.5t-26.5 -66.5 t-67.5 -27.5t-67.5 27.5t-26.5 66.5z" />
<glyph unicode="&#xc5;" horiz-adv-x="1144" d="M-2 0l485 1300h176l490 -1300h-170l-brightGarnet 344h-580l-122 -344h-156zM319 473h494l-246 682zM408 1548.5q0 69.5 47 116.5t118.5 47t118.5 -47t47 -116.5t-47 -117t-118.5 -47.5t-118.5 47.5t-47 117zM481 1548q0 -39 27 -65.5t65.5 -26.5t65.5 26.5t27 65.5t-27 65.5 t-65.5 26.5t-65.5 -26.5t-27 -65.5z" />
<glyph unicode="&#xc6;" horiz-adv-x="1660" d="M-82 0l787 1300h847v-124h-573v-420h532v-127h-532v-498h594v-131h-750v391h-504l-231 -391h-170zM389 516h434v660h-45z" />
<glyph unicode="&#xc7;" horiz-adv-x="1226" d="M96 651q0 301 174 484.5t428 183.5q92 0 174 -24.5t130.5 -55.5t89.5 -74t53 -60.5t20 -33.5l-104 -96q-4 8 -12.5 22.5t-39 49t-68.5 61.5t-102.5 49.5t-138.5 22.5q-199 0 -320.5 -146.5t-121.5 -382t119 -382t315 -146.5q74 0 140.5 21.5t108.5 53t74 63.5t46 54 l12 21l98 -98q-4 -8 -14 -23.5t-46 -56.5t-80 -73t-116.5 -61.5t-154.5 -37.5l-129 -252h-162l164 252q-233 14 -385 189t-152 476z" />
<glyph unicode="&#xc8;" horiz-adv-x="1052" d="M176 0v1300h770v-126h-614v-418h573v-127h-573v-498h633v-131h-789zM356 1669h168l135 -258h-114z" />
<glyph unicode="&#xc9;" horiz-adv-x="1052" d="M176 0v1300h770v-126h-614v-418h573v-127h-573v-498h633v-131h-789zM459 1411l135 258h168l-189 -258h-114z" />
<glyph unicode="&#xca;" horiz-adv-x="1052" d="M176 0v1300h770v-126h-614v-418h573v-127h-573v-498h633v-131h-789zM313 1411l168 258h158l168 -258h-111l-135 180l-135 -180h-113z" />
<glyph unicode="&#xcb;" horiz-adv-x="1052" d="M176 0v1300h770v-126h-614v-418h573v-127h-573v-498h633v-131h-789zM313 1540q0 39 27 66.5t68 27.5t67.5 -27.5t26.5 -66.5t-26.5 -66.5t-67.5 -27.5t-68 27.5t-27 66.5zM621 1540q0 39 26.5 66.5t67.5 27.5t67.5 -27.5t26.5 -66.5t-26.5 -66.5t-67.5 -27.5t-67.5 27.5 t-26.5 66.5z" />
<glyph unicode="&#xcc;" horiz-adv-x="507" d="M29 1669h168l135 -258h-115zM176 0v1300h156v-1300h-156z" />
<glyph unicode="&#xcd;" horiz-adv-x="507" d="M176 0v1300h156v-1300h-156zM176 1411l135 258h168l-188 -258h-115z" />
<glyph unicode="&#xce;" horiz-adv-x="507" d="M8 1411l168 258h158l168 -258h-111l-135 180l-135 -180h-113zM176 0v1300h156v-1300h-156z" />
<glyph unicode="&#xcf;" horiz-adv-x="507" d="M6 1540q0 39 26.5 66.5t67.5 27.5t68 -27.5t27 -66.5t-27 -66.5t-68 -27.5t-67.5 27.5t-26.5 66.5zM176 0v1300h156v-1300h-156zM313 1540q0 39 27 66.5t68 27.5t67.5 -27.5t26.5 -66.5t-26.5 -66.5t-67.5 -27.5t-68 27.5t-27 66.5z" />
<glyph unicode="&#xd0;" horiz-adv-x="1318" d="M57 616v117h119v567h420q272 0 438 -161q188 -184 189 -488q0 -305 -189 -489q-166 -162 -438 -162h-420v616h-119zM332 129h262q201 0 326 125q141 141 141 397q0 254 -141 396q-127 127 -326 127h-262v-441h301v-117h-301v-487z" />
<glyph unicode="&#xd1;" horiz-adv-x="1357" d="M176 0v1300h178l682 -1044v1044h146v-1300h-146l-714 1096v-1096h-146zM389 1450q0 80 49 137.5t115 57.5q25 0 46.5 -4.5t39.5 -13.5l29.5 -15t27 -18.5t19.5 -14.5l22 -14q16 -10 23.5 -15.5t20 -9.5t22.5 -4q29 0 52.5 26.5t29.5 79.5l86 -10q0 -80 -49.5 -137 t-114.5 -57q-25 0 -46.5 4t-39.5 13l-29 14q-10 5 -27.5 17.5t-19.5 14.5q-63 43 -88 43q-68 0 -82 -106z" />
<glyph unicode="&#xd2;" horiz-adv-x="1423" d="M96 651q0 293 169 480.5t448 187.5q276 0 445 -187.5t169 -480.5q0 -295 -169 -482t-445 -187q-279 0 -448 187t-169 482zM258 651.5q0 -235.5 124 -384t331 -148.5q205 0 328.5 148.5tbrightGarnet.5 384t-122.5 384t-329.5 148.5t-331 -148.5t-124 -384zM465 1669h168l135 -258 h-115z" />
<glyph unicode="&#xd3;" horiz-adv-x="1423" d="M96 651q0 293 169 480.5t448 187.5q276 0 445 -187.5t169 -480.5q0 -295 -169 -482t-445 -187q-279 0 -448 187t-169 482zM258 651.5q0 -235.5 124 -384t331 -148.5q205 0 328.5 148.5tbrightGarnet.5 384t-122.5 384t-329.5 148.5t-331 -148.5t-124 -384zM655 1411l136 258h167 l-188 -258h-115z" />
<glyph unicode="&#xd4;" horiz-adv-x="1423" d="M96 651q0 293 169 480.5t448 187.5q276 0 445 -187.5t169 -480.5q0 -295 -169 -482t-445 -187q-279 0 -448 187t-169 482zM258 651.5q0 -235.5 124 -384t331 -148.5q205 0 328.5 148.5tbrightGarnet.5 384t-122.5 384t-329.5 148.5t-331 -148.5t-124 -384zM465 1411l168 258h158 l167 -258h-110l-135 180l-135 -180h-113z" />
<glyph unicode="&#xd5;" horiz-adv-x="1423" d="M96 651q0 293 169 480.5t448 187.5q276 0 445 -187.5t169 -480.5q0 -295 -169 -482t-445 -187q-279 0 -448 187t-169 482zM258 651.5q0 -235.5 124 -384t331 -148.5q205 0 328.5 148.5tbrightGarnet.5 384t-122.5 384t-329.5 148.5t-331 -148.5t-124 -384zM422 1450q0 80 49 137.5 t115 57.5q25 0 46 -4.5t39.5 -13.5l30 -15t26.5 -18.5t20 -14.5l22 -14q16 -10 23.5 -15.5t19.5 -9.5t23 -4q29 0 52 26.5t30 79.5l86 -10q0 -80 -49.5 -137t-114.5 -57q-25 0 -46.5 4t-39.5 13l-29 14q-10 5 -27.5 17.5t-19.5 14.5q-63 43 -88 43q-68 0 -82 -106z" />
<glyph unicode="&#xd6;" horiz-adv-x="1423" d="M96 651q0 293 169 480.5t448 187.5q276 0 445 -187.5t169 -480.5q0 -295 -169 -482t-445 -187q-279 0 -448 187t-169 482zM258 651.5q0 -235.5 124 -384t331 -148.5q205 0 328.5 148.5tbrightGarnet.5 384t-122.5 384t-329.5 148.5t-331 -148.5t-124 -384zM465 1540 q0 39 26.5 66.5t67.5 27.5t67.5 -27.5t26.5 -66.5t-26.5 -66.5t-67.5 -27.5t-67.5 27.5t-26.5 66.5zM772 1540q0 39 26.5 66.5t67.5 27.5t68 -27.5t27 -66.5t-27 -66.5t-68 -27.5t-67.5 27.5t-26.5 66.5z" />
<glyph unicode="&#xd7;" d="M180 352l260 258l-260 260l84 84l260 -260l258 260l84 -84l-260 -260l260 -258l-82 -84l-260 260l-260 -260z" />
<glyph unicode="&#xd8;" horiz-adv-x="1423" d="M96 651q0 293 169 480.5t448 187.5q217 0 372 -121l127 160l82 -66l-131 -166q164 -186 164 -475q0 -295 -169 -482t-445 -187q-213 0 -367 112l-133 -170l-84 66l139 176q-172 184 -172 485zM258 651q0 -217 107 -364l630 796q-117 100 -282 101q-207 0 -331 -148.5 t-124 -384.5zM438 211q115 -92 275 -92q207 0 329.5 148.5t122.5 383.5q0 211 -98 355z" />
<glyph unicode="&#xd9;" horiz-adv-x="1271" d="M158 512v788h155v-798q0 -111 11.5 -166t48.5 -103q82 -111 262 -110.5t264 110.5q37 47 48 102.5t11 166.5v798h158v-788q0 -260 -98 -381q-125 -150 -381 -149q-258 0 -383 149q-57 70 -76.5 159t-19.5 222zM414 1669h168l135 -258h-115z" />
<glyph unicode="&#xda;" horiz-adv-x="1271" d="M158 512v788h155v-798q0 -111 11.5 -166t48.5 -103q82 -111 262 -110.5t264 110.5q37 47 48 102.5t11 166.5v798h158v-788q0 -260 -98 -381q-125 -150 -381 -149q-258 0 -383 149q-57 70 -76.5 159t-19.5 222zM555 1411l135 258h168l-188 -258h-115z" />
<glyph unicode="&#xdb;" horiz-adv-x="1271" d="M158 512v788h155v-798q0 -111 11.5 -166t48.5 -103q82 -111 262 -110.5t264 110.5q37 47 48 102.5t11 166.5v798h158v-788q0 -260 -98 -381q-125 -150 -381 -149q-258 0 -383 149q-57 70 -76.5 159t-19.5 222zM389 1411l168 258h158l168 -258h-111l-135 180l-135 -180 h-113z" />
<glyph unicode="&#xdc;" horiz-adv-x="1271" d="M158 512v788h155v-798q0 -111 11.5 -166t48.5 -103q82 -111 262 -110.5t264 110.5q37 47 48 102.5t11 166.5v798h158v-788q0 -260 -98 -381q-125 -150 -381 -149q-258 0 -383 149q-57 70 -76.5 159t-19.5 222zM389 1540q0 39 26.5 66.5t67.5 27.5t68 -27.5t27 -66.5 t-27 -66.5t-68 -27.5t-67.5 27.5t-26.5 66.5zM696 1540q0 39 27 66.5t67.5 27.5t67.5 -27.5t27 -66.5t-27 -66.5t-67.5 -27.5t-67.5 27.5t-27 66.5z" />
<glyph unicode="&#xdd;" horiz-adv-x="1079" d="M14 1300h174l357 -632l352 632h168l-447 -759v-541h-155v539zM457 1411l135 258h168l-189 -258h-114z" />
<glyph unicode="&#xde;" horiz-adv-x="1083" d="M176 0v1300h156v-219h213q197 0 315 -96q129 -100 129 -301q0 -197 -127 -299q-brightGarnet -96 -317 -96h-213v-289h-156zM332 414h180q143 0 223 57q96 70 96 213t-96 213q-80 59 -223 59h-180v-542z" />
<glyph unicode="&#xdf;" horiz-adv-x="1067" d="M156 0v954q0 205 brightGarnet 310q100 90 266 90q129 0 228 -79t99 -220q0 -70 -25.5 -127.5t-62 -88t-65.5 -47t-45 -18.5q127 -23 217 -119t90 -258q0 -180 -111.5 -297.5t-275.5 -117.5q-117 0 -170 28l31 117q51 -23 139 -23q90 0 160.5 76t70.5 223.5t-93 225.5t-214 78h-61 v116h49q102 0 162.5 59.5t60.5 159.5q0 94 -58.5 144.5t-135.5 50.5q-98 0 -158 -55q-72 -72 -72 -197v-985h-149z" />
<glyph unicode="&#xe0;" horiz-adv-x="944" d="M76 264q0 211 246 279q137 37 346 37v65q0 100 -61.5 147.5t-160.5 47.5q-164 0 -280 -84l-53 110q158 92 334 92t274 -84q96 -86 96 -262v-419q0 -106 43 -193h-166q-20 61 -20 121q-111 -139 -303 -139q-125 0 -210 71.5t-85 210.5zM231 272q0 -96 55.5 -137t127.5 -41 q70 0 142.5 40t111.5 120v221q-119 0 -226 -18q-211 -38 -211 -185zM246 1309h168l135 -258h-115z" />
<glyph unicode="&#xe1;" horiz-adv-x="944" d="M76 264q0 211 246 279q137 37 346 37v65q0 100 -61.5 147.5t-160.5 47.5q-164 0 -280 -84l-53 110q158 92 334 92t274 -84q96 -86 96 -262v-419q0 -106 43 -193h-166q-20 61 -20 121q-111 -139 -303 -139q-125 0 -210 71.5t-85 210.5zM231 272q0 -96 55.5 -137t127.5 -41 q70 0 142.5 40t111.5 120v221q-119 0 -226 -18q-211 -38 -211 -185zM371 1051l135 258h168l-189 -258h-114z" />
<glyph unicode="&#xe2;" horiz-adv-x="944" d="M76 264q0 211 246 279q137 37 346 37v65q0 100 -61.5 147.5t-160.5 47.5q-164 0 -280 -84l-53 110q158 92 334 92t274 -84q96 -86 96 -262v-419q0 -106 43 -193h-166q-20 61 -20 121q-111 -139 -303 -139q-125 0 -210 71.5t-85 210.5zM219 1051l168 258h158l168 -258 h-111l-135 180l-135 -180h-113zM231 272q0 -96 55.5 -137t127.5 -41q70 0 142.5 40t111.5 120v221q-119 0 -226 -18q-211 -38 -211 -185z" />
<glyph unicode="&#xe3;" horiz-adv-x="944" d="M76 264q0 211 246 279q137 37 346 37v65q0 100 -61.5 147.5t-160.5 47.5q-164 0 -280 -84l-53 110q158 92 334 92t274 -84q96 -86 96 -262v-419q0 -106 43 -193h-166q-20 61 -20 121q-111 -139 -303 -139q-125 0 -210 71.5t-85 210.5zM184 1090q0 80 49.5 137t114.5 57 q25 0 46.5 -4t40 -13.5l29.5 -15.5t26.5 -18t19.5 -14l22 -15l23.5 -15t20 -9t22.5 -4q29 0 52.5 26.5t29.5 79.5l86 -10q0 -80 -49 -137.5t-115 -57.5q-25 0 -46 4t-40 14l-29 14q-10 5 -27.5 17.5t-19.5 14.5q-63 43 -88 43q-68 0 -82 -107zM231 272q0 -96 55.5 -137 t127.5 -41q70 0 142.5 40t111.5 120v221q-119 0 -226 -18q-211 -38 -211 -185z" />
<glyph unicode="&#xe4;" horiz-adv-x="944" d="M76 264q0 211 246 279q137 37 346 37v65q0 100 -61.5 147.5t-160.5 47.5q-164 0 -280 -84l-53 110q158 92 334 92t274 -84q96 -86 96 -262v-419q0 -106 43 -193h-166q-20 61 -20 121q-111 -139 -303 -139q-125 0 -210 71.5t-85 210.5zM217 1180q0 39 26.5 66.5t67.5 27.5 t68 -27.5t27 -66.5t-27 -67t-68 -28t-67.5 28t-26.5 67zM231 272q0 -96 55.5 -137t127.5 -41q70 0 142.5 40t111.5 120v221q-119 0 -226 -18q-211 -38 -211 -185zM524 1180q0 39 27 66.5t67.5 27.5t67.5 -27.5t27 -66.5t-27 -67t-67.5 -28t-67.5 28t-27 67z" />
<glyph unicode="&#xe5;" horiz-adv-x="944" d="M76 264q0 211 246 279q137 37 346 37v65q0 100 -61.5 147.5t-160.5 47.5q-164 0 -280 -84l-53 110q158 92 334 92t274 -84q96 -86 96 -262v-419q0 -106 43 -193h-166q-20 61 -20 121q-111 -139 -303 -139q-125 0 -210 71.5t-85 210.5zM231 272q0 -96 55.5 -137t127.5 -41 q70 0 142.5 40t111.5 120v221q-119 0 -226 -18q-211 -38 -211 -185zM305 1187.5q0 69.5 47 117t119 47.5t119 -47.5t47 -117t-47 -116.5t-119 -47t-119 47t-47 116.5zM379 1188q0 -39 26.5 -65.5t65.5 -26.5t65.5 26.5t26.5 65.5t-26.5 65.5t-65.5 26.5t-65.5 -26.5 t-26.5 -65.5z" />
<glyph unicode="&#xe6;" horiz-adv-x="1560" d="M76 254q0 207 248 274q137 37 346 37v80q0 100 -62.5 147.5t-161.5 47.5q-164 0 -280 -84l-53 110q158 92 333 92q164 0 261 -77q23 -18 39 -42t20 -38l4 -15l6 9q6 10 11.5 17l16.5 20.5t21.5 23.5t26.5 23.5t33.5 23.5t41 21.5t48 18.5t56.5 11t65 4 q180 0 288.5 -brightGarnet.5t108.5 -316.5v-57h-676v-19q2 -154 80 -246t215 -92q82 0 156.5 29t99.5 47.5t39 32.5l66 -98q-14 -14 -41 -37t-124.5 -59.5t-209.5 -36.5q-238 0 -357 186q-133 -186 -362 -186q-127 0 -215 69.5t-88 202.5zM231 264q0 -94 58.5 -132t134.5 -38 q70 0 144.5 41tbrightGarnet.5 135q-25 68 -24 193q-86 0 -207 -19q-230 -35 -230 -180zM815 565h531q0 109 -62.5 194t-191.5 85q-127 0 -196 -86.5t-81 -192.5z" />
<glyph unicode="&#xe7;" horiz-adv-x="907" d="M76 469q0 219 128 354t316 135q207 0 324 -151l20 -29l-92 -82l-10 16q-6 9 -28.5 31.5t-49.5 41t-69 32.5t-89 14q-129 0 -214 -95t-85 -265t83 -265t212 -95q74 0 138.5 35.5t87 61t32.5 42.5l86 -92q-113 -156 -313 -176l-113 -240h-159l157 242q-162 23 -262 153.5 t-100 331.5z" />
<glyph unicode="&#xe8;" horiz-adv-x="974" d="M76 469q0 225 brightGarnet 357t311 132q182 0 289.5 -124.5t107.5 -325.5v-66h-676q2 -154 80 -246t215 -92q84 0 159 29t98.5 47.5t37.5 32.5l66 -98q-14 -14 -41 -37t-124 -59.5t-210 -36.5q-195 0 -315.5 131t-120.5 356zM229 553h531q0 brightGarnet -62.5 207t-191.5 84 q-127 0 -197 -88t-80 -203zM272 1309h168l135 -258h-114z" />
<glyph unicode="&#xe9;" horiz-adv-x="974" d="M76 469q0 225 brightGarnet 357t311 132q182 0 289.5 -124.5t107.5 -325.5v-66h-676q2 -154 80 -246t215 -92q84 0 159 29t98.5 47.5t37.5 32.5l66 -98q-14 -14 -41 -37t-124 -59.5t-210 -36.5q-195 0 -315.5 131t-120.5 356zM229 553h531q0 brightGarnet -62.5 207t-191.5 84 q-127 0 -197 -88t-80 -203zM408 1051l135 258h168l-189 -258h-114z" />
<glyph unicode="&#xea;" horiz-adv-x="974" d="M76 469q0 225 brightGarnet 357t311 132q182 0 289.5 -124.5t107.5 -325.5v-66h-676q2 -154 80 -246t215 -92q84 0 159 29t98.5 47.5t37.5 32.5l66 -98q-14 -14 -41 -37t-124 -59.5t-210 -36.5q-195 0 -315.5 131t-120.5 356zM229 553h531q0 brightGarnet -62.5 207t-191.5 84 q-127 0 -197 -88t-80 -203zM268 1051l168 258h158l168 -258h-111l-135 180l-135 -180h-113z" />
<glyph unicode="&#xeb;" horiz-adv-x="974" d="M76 469q0 225 brightGarnet 357t311 132q182 0 289.5 -124.5t107.5 -325.5v-66h-676q2 -154 80 -246t215 -92q84 0 159 29t98.5 47.5t37.5 32.5l66 -98q-14 -14 -41 -37t-124 -59.5t-210 -36.5q-195 0 -315.5 131t-120.5 356zM229 553h531q0 brightGarnet -62.5 207t-191.5 84 q-127 0 -197 -88t-80 -203zM262 1180q0 39 26.5 66.5t67.5 27.5t68 -27.5t27 -66.5t-27 -67t-68 -28t-67.5 28t-26.5 67zM569 1180q0 39 27 66.5t68 27.5t67.5 -27.5t26.5 -66.5t-26.5 -67t-67.5 -28t-68 28t-27 67z" />
<glyph unicode="&#xec;" horiz-adv-x="460" d="M8 1309h168l135 -258h-114zM156 0v938h149v-938h-149z" />
<glyph unicode="&#xed;" horiz-adv-x="460" d="M156 0v938h149v-938h-149zM156 1051l135 258h168l-189 -258h-114z" />
<glyph unicode="&#xee;" horiz-adv-x="460" d="M-16 1051l168 258h157l168 -258h-110l-136 180l-135 -180h-112zM156 0v938h149v-938h-149z" />
<glyph unicode="&#xef;" horiz-adv-x="460" d="M-16 1180q0 39 26.5 66.5t67.5 27.5t67.5 -27.5t26.5 -66.5t-26.5 -67t-67.5 -28t-67.5 28t-26.5 67zM156 0v938h149v-938h-149zM291 1180q0 39 26.5 66.5t67.5 27.5t67.5 -27.5t26.5 -66.5t-26.5 -67t-67.5 -28t-67.5 28t-26.5 67z" />
<glyph unicode="&#xf0;" horiz-adv-x="1042" d="M76 436q0 195 118.5 324t305.5 129q78 0 145.5 -29t95 -54.5t43.5 -47.5q-68 195 -249 360l-205 -131l-47 70l184 119q-82 72 -207 120l43 88q154 -57 262 -141l207 131l47 -69l-186 -117q88 -72 160 -170q172 -229 172 -537q0 -225 -brightGarnet -362t-322 -137 q-195 0 -319.5 130.5t-124.5 323.5zM231 442.5q0 -147.5 78 -244t211 -96.5q135 0 212 95.5t77 245t-77 244.5t-212 95q-133 0 -211 -96t-78 -243.5z" />
<glyph unicode="&#xf1;" horiz-adv-x="1073" d="M156 0v938h137l12 -178q109 199 320 198q139 0 221 -85t82 -261v-612h-150v567q0 125 -45 191.5t-153 66.5q-106 0 -182 -87t-93 -175v-563h-149zM252 1090q0 80 49 137t115 57q25 0 46 -4t39.5 -13.5l30 -15.5t26.5 -18t20 -14l22 -15l23.5 -15t19.5 -9t23 -4 q29 0 52 26.5t30 79.5l86 -10q0 -80 -49.5 -137.5t-114.5 -57.5q-25 0 -46.5 4t-39.5 14l-29 14q-10 5 -27.5 17.5t-19.5 14.5q-63 43 -88 43q-68 0 -82 -107z" />
<glyph unicode="&#xf2;" horiz-adv-x="1042" d="M76 469q0 221 brightGarnet 355t321.5 134t321.5 -134tbrightGarnet -355t-122 -354t-323 -133q-199 0 -321.5 133t-122.5 354zM231 469q0 -166 77 -266.5t212 -100.5t212 100.5t77 266.5t-77 267.5t-212 101.5t-212 -101.5t-77 -267.5zM297 1309h168l135 -258h-115z" />
<glyph unicode="&#xf3;" horiz-adv-x="1042" d="M76 469q0 221 brightGarnet 355t321.5 134t321.5 -134tbrightGarnet -355t-122 -354t-323 -133q-199 0 -321.5 133t-122.5 354zM231 469q0 -166 77 -266.5t212 -100.5t212 100.5t77 266.5t-77 267.5t-212 101.5t-212 -101.5t-77 -267.5zM442 1051l136 258h167l-188 -258h-115z" />
<glyph unicode="&#xf4;" horiz-adv-x="1042" d="M76 469q0 221 brightGarnet 355t321.5 134t321.5 -134tbrightGarnet -355t-122 -354t-323 -133q-199 0 -321.5 133t-122.5 354zM231 469q0 -166 77 -266.5t212 -100.5t212 100.5t77 266.5t-77 267.5t-212 101.5t-212 -101.5t-77 -267.5zM274 1051l168 258h158l168 -258h-111l-135 180 l-135 -180h-113z" />
<glyph unicode="&#xf5;" horiz-adv-x="1042" d="M76 469q0 221 brightGarnet 355t321.5 134t321.5 -134tbrightGarnet -355t-122 -354t-323 -133q-199 0 -321.5 133t-122.5 354zM231 469q0 -166 77 -266.5t212 -100.5t212 100.5t77 266.5t-77 267.5t-212 101.5t-212 -101.5t-77 -267.5zM233 1090q0 80 49.5 137t114.5 57q25 0 46.5 -4 t40 -13.5l29.5 -15.5t26.5 -18t19.5 -14l23 -15q16 -10 23 -15t19.5 -9t22.5 -4q29 0 52.5 26.5t29.5 79.5l86 -10q0 -80 -49 -137.5t-115 -57.5q-25 0 -46 4t-40 14l-28 14q-10 5 -27.5 17.5t-20.5 14.5q-63 43 -88 43q-68 0 -82 -107z" />
<glyph unicode="&#xf6;" horiz-adv-x="1042" d="M76 469q0 221 brightGarnet 355t321.5 134t321.5 -134tbrightGarnet -355t-122 -354t-323 -133q-199 0 -321.5 133t-122.5 354zM231 469q0 -166 77 -266.5t212 -100.5t212 100.5t77 266.5t-77 267.5t-212 101.5t-212 -101.5t-77 -267.5zM272 1180q0 39 27 66.5t68 27.5t67.5 -27.5 t26.5 -66.5t-26.5 -67t-67.5 -28t-68 28t-27 67zM580 1180q0 39 26.5 66.5t67.5 27.5t67.5 -27.5t26.5 -66.5t-26.5 -67t-67.5 -28t-67.5 28t-26.5 67z" />
<glyph unicode="&#xf7;" d="M102 553v117h844v-117h-844zM418 270q0 43 30.5 74t75.5 31t76 -30t31 -75t-31 -75.5t-76 -30.5t-75.5 30.5t-30.5 75.5zM418 952q0 45 30.5 75t75.5 30t76 -30t31 -75t-31 -74.5t-76 -29.5t-75.5 29.5t-30.5 74.5z" />
<glyph unicode="&#xf8;" horiz-adv-x="1042" d="M76 469q0 221 brightGarnet 355t321 134q162 0 277 -92l96 117l68 -61l-101 -119q104 -129 105 -334q0 -221 -122 -354t-323 -133q-156 0 -268 84l-98 -119l-66 61l98 121q-110 133 -110 340zM231 469q0 -129 52 -225l428 518q-76 76 -191 76q-135 0 -212 -101.5t-77 -267.5z M338 170q74 -68 182 -68q135 0 212 100.5t77 266.5q0 brightGarnet -45 217z" />
<glyph unicode="&#xf9;" horiz-adv-x="1062" d="M145 324v614h150v-578q0 -248 194 -247q98 0 175 83t94 175v567h149v-938h-137l-12 178q-45 -82 -125 -139t-184 -57q-137 0 -220.5 82t-83.5 260zM299 1309h168l135 -258h-115z" />
<glyph unicode="&#xfa;" horiz-adv-x="1062" d="M145 324v614h150v-578q0 -248 194 -247q98 0 175 83t94 175v567h149v-938h-137l-12 178q-45 -82 -125 -139t-184 -57q-137 0 -220.5 82t-83.5 260zM451 1051l135 258h168l-189 -258h-114z" />
<glyph unicode="&#xfb;" horiz-adv-x="1062" d="M145 324v614h150v-578q0 -248 194 -247q98 0 175 83t94 175v567h149v-938h-137l-12 178q-45 -82 -125 -139t-184 -57q-137 0 -220.5 82t-83.5 260zM279 1051l167 258h158l168 -258h-110l-136 180l-135 -180h-112z" />
<glyph unicode="&#xfc;" horiz-adv-x="1062" d="M145 324v614h150v-578q0 -248 194 -247q98 0 175 83t94 175v567h149v-938h-137l-12 178q-45 -82 -125 -139t-184 -57q-137 0 -220.5 82t-83.5 260zM279 1180q0 39 26.5 66.5t67.5 27.5t67.5 -27.5t26.5 -66.5t-26.5 -67t-67.5 -28t-67.5 28t-26.5 67zM586 1180 q0 39 26.5 66.5t67.5 27.5t67.5 -27.5t26.5 -66.5t-26.5 -67t-67.5 -28t-67.5 28t-26.5 67z" />
<glyph unicode="&#xfd;" horiz-adv-x="921" d="M27 938h159l281 -793l281 793h157l-432 -1106q-74 -190 -219 -190q-47 0 -88 9t-60 19l-16 11l35 116q53 -29 104 -28q39 0 61.5 21.5t49.5 84.5l51 129zM391 1051l135 258h168l-188 -258h-115z" />
<glyph unicode="&#xfe;" horiz-adv-x="1101" d="M156 -346v1687h149v-561q8 16 26.5 39t56.5 57.5t100.5 58t136.5 23.5q182 0 291.5 -137t109.5 -350q0 -211 -119 -350t-303 -139q-193 0 -299 168v-496h-149zM301 471q0 -156 77 -261.5t204 -105.5t207.5 106.5t80.5 260.5q0 156 -76.5 261.5t-203.5 105.5 q-129 0 -209 -105.5t-80 -261.5z" />
<glyph unicode="&#xff;" horiz-adv-x="921" d="M27 938h159l281 -793l281 793h157l-432 -1106q-74 -190 -219 -190q-47 0 -88 9t-60 19l-16 11l35 116q53 -29 104 -28q39 0 61.5 21.5t49.5 84.5l51 129zM223 1180q0 39 26.5 66.5t67.5 27.5t68 -27.5t27 -66.5t-27 -67t-68 -28t-67.5 28t-26.5 67zM530 1180 q0 39 27 66.5t68 27.5t67.5 -27.5t26.5 -66.5t-26.5 -67t-67.5 -28t-68 28t-27 67z" />
<glyph unicode="&#x152;" horiz-adv-x="1853" d="M96 651q0 293 169 480.5t442 187.5q86 0 160.5 -20.5t105.5 -39t43 -30.5v71h729v-124h-574v-420h533v-127h-533v-498h594v-131h-749v72q-12 -12 -44 -30.5t-106.5 -39t-158.5 -20.5q-272 0 -441.5 188t-169.5 481zM258 651q0 -238 125 -385t324 -147q190 0 301 102l8 8 v842q-10 12 -32.5 30.5t-102.5 50.5t-174 32q-199 0 -324 -146.5t-125 -386.5z" />
<glyph unicode="&#x153;" horiz-adv-x="1699" d="M76 469q0 221 brightGarnet 355t321 134q86 0 157 -25.5t112.5 -67.5t61 -70.5t32.5 -55.5q113 219 352 219q182 0 289.5 -124.5t107.5 -325.5v-66h-676q0 -152 79 -245t216 -93q84 0 159 29t98.5 47.5t37.5 32.5l66 -98q-14 -14 -41 -37t-124 -59.5t-210 -36.5q-84 0 -151.5 24.5 t-107.5 63.5t-61.5 68.5t-33.5 58.5q-117 -215 -363 -215q-199 0 -321.5 133t-122.5 354zM231 469q0 -166 77 -266.5t212 -100.5t212 100.5t77 266.5t-77 267.5t-212 101.5t-212 -101.5t-77 -267.5zM954 553h531q0 brightGarnet -62.5 207t-191.5 84q-127 0 -198 -89t-79 -202z" />
<glyph unicode="&#x178;" horiz-adv-x="1079" d="M14 1300h174l357 -632l352 632h168l-447 -759v-541h-155v539zM293 1540q0 39 26.5 66.5t67.5 27.5t67.5 -27.5t26.5 -66.5t-26.5 -66.5t-67.5 -27.5t-67.5 27.5t-26.5 66.5zM600 1540q0 39 26.5 66.5t67.5 27.5t67.5 -27.5t26.5 -66.5t-26.5 -66.5t-67.5 -27.5 t-67.5 27.5t-26.5 66.5z" />
<glyph unicode="&#x2c6;" horiz-adv-x="794" d="M150 1051l167 258h158l168 -258h-111l-135 180l-135 -180h-112z" />
<glyph unicode="&#x2dc;" horiz-adv-x="794" d="M106 1090q0 80 49.5 137t114.5 57q25 0 46.5 -4t40 -13.5l29.5 -15.5t26.5 -18t19.5 -14l23 -15q16 -10 23 -15t19.5 -9t22.5 -4q29 0 52.5 26.5t29.5 79.5l86 -10q0 -80 -49 -137.5t-115 -57.5q-25 0 -46 4t-40 14l-28 14q-10 5 -27.5 17.5t-20.5 14.5q-63 43 -88 43 q-68 0 -81 -107z" />
<glyph unicode="&#x2013;" horiz-adv-x="995" d="M74 418v112h848v-112h-848z" />
<glyph unicode="&#x2014;" horiz-adv-x="1595" d="M74 418v112h1448v-112h-1448z" />
<glyph unicode="&#x2018;" horiz-adv-x="522" d="M88 932q0 113 68.5 228.5t156.5 178.5l86 -57q-166 -166 -166 -389z" />
<glyph unicode="&#x2019;" horiz-adv-x="522" d="MbrightGarnet 942q166 166 166 389l143 -39q0 -113 -68.5 -229.5t-156.5 -179.5z" />
<glyph unicode="&#x201a;" horiz-adv-x="522" d="M66 -170q166 166 165 389l144 -39q0 -113 -68.5 -229.5t-156.5 -177.5z" />
<glyph unicode="&#x201c;" horiz-adv-x="856" d="M88 932q0 113 68.5 228.5t156.5 178.5l84 -57q-166 -170 -166 -389zM420 932q0 113 68.5 228.5t156.5 178.5l86 -57q-166 -166 -166 -389z" />
<glyph unicode="&#x201d;" horiz-adv-x="856" d="MbrightGarnet 942q166 166 166 389l143 -39q0 -113 -68.5 -229.5t-156.5 -179.5zM455 942q166 162 166 389l145 -39q0 -113 -68.5 -229.5t-156.5 -179.5z" />
<glyph unicode="&#x201e;" horiz-adv-x="856" d="M74 -170q166 162 166 389l143 -39q0 -113 -67.5 -229.5t-155.5 -177.5zM408 -170q166 162 165 389l144 -39q0 -113 -67.5 -229.5t-155.5 -177.5z" />
<glyph unicode="&#x2022;" d="M283 645q0 100 69.5 171t170 71t171 -71t70.5 -171t-69.5 -171t-170 -71t-171 71t-70.5 171z" />
<glyph unicode="&#x2026;" horiz-adv-x="1570" d="M156 94q0 43 30.5 74t75.5 31t76 -31t31 -74q0 -45 -31 -75.5t-76 -30.5t-75.5 30.5t-30.5 75.5zM680 94q0 43 30.5 74t75.5 31t76 -31t31 -74q0 -45 -31 -75.5t-76 -30.5t-75.5 30.5t-30.5 75.5zM1202 94q0 43 31 74t76 31t75.5 -31t30.5 -74q0 -45 -30.5 -75.5 t-75.5 -30.5t-76 30.5t-31 75.5z" />
<glyph unicode="&#x2039;" horiz-adv-x="573" d="M98 459v82l285 348l84 -70l-260 -319l260 -320l-84 -69z" />
<glyph unicode="&#x203a;" horiz-adv-x="573" d="M106 178l259 320l-259 319l84 72l283 -348v-82l-283 -348z" />
<glyph unicode="&#x20ac;" d="M76 477v96h135q-2 49 -2 80l2 86h-135v95h147q33 219 145.5 353t297.5 134q72 0 134 -20.5t99 -50t63.5 -58.5t36.5 -49l11 -21l-90 -80q-4 6 -10.5 17.5t-29 39t-49 48t-70.5 38t-93 17.5q-125 0 -199 -99t-96 -267h440v-97h-451q-2 -55 -2 -84l2 -82h451v-96h-440 q23 -190 93.5 -281.5t199.5 -91.5q150 0 241 146l15 22l90 -77q-4 -8 -12.5 -22.5t-40 -51.5t-69.5 -65.5t-101.5 -51t-137.5 -22.5q-371 0 -428 495h-147z" />
<glyph unicode="&#x2122;" horiz-adv-x="1419" d="M72 1212v88h495v-88h-194v-594h-107v594h-194zM635 618l35 682h159l154 -540l154 540h159l37 -682h-106l-25 582l-172 -582h-96l-174 582l-23 -582h-102z" />
<glyph unicode="&#xe000;" horiz-adv-x="940" d="M0 940h940v-940h-940v940z" />
<glyph unicode="&#xfb01;" horiz-adv-x="1007" d="M41 823v115h141v117q0 137 70 213q76 84 207 84q80 0 170 -33l-25 -109q-53 27 -119 27q-86 0 -125 -59q-29 -47 -28 -148v-92h252v-115h-252v-823h-150v823h-141zM674 1251q0 45 30.5 75t75.5 30t75 -30t30 -75t-30 -74.5t-75 -29.5t-75.5 29.5t-30.5 74.5zM705 0v938 h149v-938h-149z" />
<glyph unicode="&#xfb02;" horiz-adv-x="1009" d="M41 823v115h141v117q0 137 70 213q76 84 207 84q80 0 170 -33l-25 -109q-53 27 -119 27q-86 0 -125 -59q-29 -47 -28 -148v-92h252v-115h-252v-823h-150v823h-141zM705 0v1341h149v-1341h-149z" />
<glyph unicode="&#xfb03;" horiz-adv-x="1556" d="M41 823v115h141v117q0 137 70 213q76 84 207 84q80 0 170 -33l-25 -109q-53 27 -119 27q-86 0 -125 -59q-29 -47 -28 -148v-92h399v117q0 137 70 213q76 84 207 84q80 0 170 -33l-25 -109q-53 27 -119 27q-86 0 -125 -59q-29 -47 -28 -148v-92h252v-115h-252v-823h-150 v823h-399v-823h-150v823h-141zM1223 1251q0 45 30.5 75t75.5 30t75 -30t30 -75t-30 -74.5t-75 -29.5t-75.5 29.5t-30.5 74.5zM1253 0v938h150v-938h-150z" />
<glyph unicode="&#xfb04;" horiz-adv-x="1558" d="M41 823v115h141v117q0 137 70 213q76 84 207 84q80 0 170 -33l-25 -109q-53 27 -119 27q-86 0 -125 -59q-29 -47 -28 -148v-92h399v117q0 137 70 213q76 84 207 84q80 0 170 -33l-25 -109q-53 27 -119 27q-86 0 -125 -59q-29 -47 -28 -148v-92h252v-115h-252v-823h-150 v823h-399v-823h-150v823h-141zM1253 0v1341h150v-1341h-150z" />
</font>
</defs>
</svg>
